<svg preserveAspectRatio="none" width="100%" height="100%" overflow="visible" style="display: block;" viewBox="0 0 20 20" fill="none" xmlns="http://www.w3.org/2000/svg">
<g id="Vector">
<path d="M20 10C20 4.47715 15.5228 0 10 0C4.47715 0 0 4.47715 0 10C0 15.5228 4.47715 20 10 20C15.5228 20 20 15.5228 20 10Z" fill="white"/>
<path d="M12.9808 11.5931C12.8739 11.8493 12.7065 12.0654 12.5231 12.2686C11.9835 12.867 11.3123 13.2317 10.5176 13.3542C8.77473 13.6237 7.13026 12.5247 6.70457 10.8086C6.51311 10.0364 6.59119 9.28607 6.92437 8.56303C6.93934 8.53095 6.96073 8.50153 6.97891 8.47105C6.97517 8.49779 6.97517 8.52613 6.96768 8.5518C6.88212 8.83631 6.86875 9.12349 6.92971 9.41442C7.11368 10.2899 7.97308 10.8803 8.84746 10.7343C9.34588 10.6508 9.72826 10.3936 10.0154 9.98022C10.4754 9.31762 11.2995 9.07322 12.0487 9.36949C12.761 9.65133 13.1974 10.4016 13.0905 11.1653C13.0734 11.2867 13.0434 11.407 13.0193 11.5274V11.5258C13.0145 11.5375 13.0086 11.5493 13.0028 11.5611L13.0038 11.5595C12.9963 11.5707 12.9889 11.5814 12.9814 11.5926L12.9808 11.5931Z" fill="#0047A0"/>
<path d="M13.0188 11.5279C13.0429 11.407 13.0729 11.2872 13.09 11.1658C13.1975 10.4022 12.7605 9.65132 12.0482 9.37002C11.299 9.07375 10.4743 9.31868 10.0149 9.98075C9.72775 10.3941 9.34591 10.6519 8.84696 10.7348C7.97258 10.8808 7.11371 10.2904 6.92921 9.41495C6.86824 9.12456 6.88161 8.83684 6.96718 8.55233C6.97466 8.52666 6.9752 8.49885 6.97841 8.47158V8.47318C6.98429 8.46142 6.99017 8.45019 6.99606 8.43842L6.99552 8.43949C7.00033 8.42612 7.00568 8.41275 7.0105 8.39938C7.17414 8.08332 7.38699 7.80309 7.64475 7.55923C8.34586 6.89395 9.18441 6.58003 10.1476 6.60998C11.6509 6.65704 12.9851 7.77475 13.3071 9.24488C13.4697 9.98931 13.3996 10.7091 13.0873 11.4044C13.068 11.4471 13.0418 11.4867 13.0188 11.5274V11.5279Z" fill="#CD2E3A"/>
<path d="M4.82428 4.51094C4.98419 4.6179 5.13446 4.7179 5.2949 4.82486C4.66813 5.76502 4.04296 6.70304 3.41351 7.64747C3.25629 7.54319 3.1028 7.44051 2.9429 7.33409C3.57074 6.39286 4.19537 5.45538 4.82482 4.51148L4.82428 4.51094Z" fill="var(--fill-0, #020202)"/>
<path d="M2.94238 12.667C3.10068 12.5616 3.25469 12.459 3.41299 12.3531C4.0403 13.2943 4.66493 14.2307 5.29438 15.1751C5.13768 15.28 4.9842 15.3826 4.8243 15.4891C4.19699 14.5478 3.57289 13.612 2.94238 12.6665V12.667Z" fill="var(--fill-0, #020202)"/>
<path d="M6.23564 5.45164C6.39821 5.5602 6.55063 5.66235 6.70571 5.76609C6.0768 6.70893 5.4511 7.64748 4.8238 8.58871C4.66443 8.48228 4.51255 8.38067 4.35372 8.27479C4.98156 7.33302 5.60673 6.395 6.23564 5.45164Z" fill="var(--fill-0, #020202)"/>
<path d="M6.70625 14.235C6.54688 14.3414 6.39447 14.443 6.23564 14.5489C5.60886 13.6082 4.98316 12.6702 4.35372 11.7263C4.51095 11.621 4.66283 11.5199 4.8238 11.4118C5.45003 12.3515 6.07573 13.2895 6.70571 14.2345L6.70625 14.235Z" fill="var(--fill-0, #020202)"/>
<path d="M3.64775 7.80417C4.27666 6.8608 4.90022 5.92599 5.52913 4.98209C5.68529 5.08531 5.83877 5.18745 6.00028 5.29441C5.37297 6.2351 4.74781 7.17312 4.11836 8.11702C3.96167 8.01274 3.80765 7.91006 3.64721 7.80363L3.64775 7.80417Z" fill="var(--fill-0, #020202)"/>
<path d="M16.3516 7.8047C16.1944 7.90952 16.042 8.01113 15.8816 8.11863C15.2548 7.17847 14.6291 6.24045 13.9996 5.29601C14.1563 5.1912 14.3104 5.08852 14.4703 4.98209C15.0981 5.92386 15.7238 6.86241 16.3522 7.8047H16.3516Z" fill="var(--fill-0, #020202)"/>
<path d="M16.0383 5.80459C15.8816 5.90941 15.7271 6.01209 15.5682 6.11851C15.2816 5.68855 14.9965 5.26178 14.7061 4.8254C14.8618 4.72111 15.0153 4.61843 15.1762 4.51094C15.4645 4.94305 15.7501 5.37142 16.0388 5.80459H16.0383Z" fill="var(--fill-0, #020202)"/>
<path d="M15.7249 6.35436C15.8821 6.24901 16.034 6.14793 16.1949 6.04044C16.4821 6.47095 16.7677 6.89931 17.0575 7.33356C16.9019 7.43784 16.7479 7.54106 16.5875 7.64801C16.3014 7.21911 16.0169 6.79235 15.7249 6.35436Z" fill="var(--fill-0, #020202)"/>
<path d="M17.0576 12.6665C16.7682 13.1007 16.4837 13.5275 16.1949 13.9601C16.0366 13.8548 15.8832 13.7521 15.7243 13.6462C16.0131 13.2135 16.2971 12.7868 16.5864 12.3531C16.7431 12.4574 16.8966 12.5595 17.057 12.6665H17.0576Z" fill="var(--fill-0, #020202)"/>
<path d="M4.6676 13.7259C4.82537 13.6205 4.97992 13.5178 5.13822 13.412C5.427 13.8446 5.71258 14.2735 6.0003 14.7056C5.84253 14.8104 5.69012 14.912 5.52968 15.019C5.24197 14.5874 4.95639 14.1591 4.66707 13.7259H4.6676Z" fill="var(--fill-0, #020202)"/>
<path d="M15.1756 15.4891C15.0162 15.3832 14.8644 15.2816 14.705 15.1757C14.9932 14.743 15.2788 14.3147 15.5671 13.882C15.7259 13.9879 15.8799 14.0911 16.0377 14.196C15.7505 14.627 15.466 15.0538 15.1756 15.4891Z" fill="var(--fill-0, #020202)"/>
<path d="M13.2938 5.76663C13.4526 5.66074 13.6045 5.55913 13.7644 5.45271C14.0505 5.88214 14.3366 6.31051 14.627 6.74583C14.4703 6.85064 14.319 6.95172 14.1574 7.05975C13.8708 6.62978 13.5847 6.20195 13.2943 5.76663H13.2938Z" fill="var(--fill-0, #020202)"/>
<path d="M13.2938 14.2345C13.5826 13.8013 13.8671 13.375 14.1559 12.9413C14.3125 13.0456 14.4644 13.1462 14.6265 13.2542C14.3382 13.6868 14.0516 14.1168 13.7639 14.5484C13.605 14.4425 13.4526 14.3409 13.2932 14.2345H13.2938Z" fill="var(--fill-0, #020202)"/>
<path d="M15.6457 8.27478C15.4879 8.38013 15.336 8.48174 15.1756 8.5887C14.889 8.15926 14.6034 7.7309 14.313 7.29558C14.4697 7.19076 14.6232 7.08808 14.7831 6.98112C15.0708 7.41323 15.3564 7.84106 15.6457 8.27478Z" fill="var(--fill-0, #020202)"/>
<path d="M15.1757 11.4113C15.3361 11.5183 15.488 11.6199 15.6463 11.7252C15.3581 12.1579 15.0725 12.5857 14.7842 13.0184C14.6259 12.913 14.4746 12.8119 14.3136 12.705C14.6008 12.2745 14.8858 11.8466 15.1757 11.4108V11.4113Z" fill="var(--fill-0, #020202)"/>
<path d="M15.0185 13.1761C15.3088 12.7408 15.5934 12.314 15.8811 11.8825C16.0388 11.9873 16.1928 12.0905 16.3517 12.1958C16.0645 12.6269 15.78 13.0536 15.4896 13.489C15.3329 13.3847 15.1789 13.2825 15.0185 13.1761Z" fill="var(--fill-0, #020202)"/>
<path d="M4.98096 13.1761C4.8232 13.2809 4.67132 13.3825 4.51035 13.49C4.22263 13.059 3.93705 12.6306 3.64773 12.1969C3.80496 12.0921 3.95952 11.9889 4.11835 11.883C4.40553 12.3135 4.69004 12.7403 4.98096 13.1767V13.1761Z" fill="var(--fill-0, #020202)"/>
<path d="M14.8617 13.4114C15.0184 13.5157 15.173 13.6184 15.3323 13.7248C15.0446 14.1564 14.759 14.5847 14.4703 15.0185C14.3125 14.9136 14.1585 14.811 13.9996 14.7051C14.2868 14.274 14.5729 13.8451 14.8617 13.4114Z" fill="var(--fill-0, #020202)"/>
</g>
</svg>
