<svg preserveAspectRatio="none" width="100%" height="100%" overflow="visible" style="display: block;" viewBox="0 0 20.0019 20" fill="none" xmlns="http://www.w3.org/2000/svg">
<g id="Vector">
<path d="M17.0684 2.93064C20.9731 6.83528 20.9731 13.1659 17.0684 17.0706C13.1638 20.9752 6.83312 20.9752 2.92848 17.0706C-0.976159 13.1659 -0.976159 6.83528 2.92848 2.93064C6.83312 -0.973997 13.1638 -0.973997 17.0684 2.93064Z" fill="#F0F0F0"/>
<path fill-rule="evenodd" clip-rule="evenodd" d="M8.23221 0.15618V8.2302H0.158114C-0.0500246 9.40089 -0.0500246 10.5991 0.158114 11.7698H8.23221V19.8438C9.40286 20.0521 10.6011 20.0521 11.7717 19.8438V11.7698H19.8458C20.054 10.5991 20.054 9.40089 19.8458 8.2302H11.7717V0.15618C10.6011 -0.0520599 9.40286 -0.0520599 8.23221 0.15618Z" fill="var(--fill-0, #D80027)"/>
<path fill-rule="evenodd" clip-rule="evenodd" d="M6.76386 19.4636V13.2383L2.00249 16.0007C3.20717 17.6057 4.86593 18.812 6.76401 19.4636H6.76386Z" fill="#0052B4"/>
<path fill-rule="evenodd" clip-rule="evenodd" d="M1.90732 13.2383L0.785313 13.8861C1.0191 14.4395 1.30242 14.9706 1.6318 15.473L5.50267 13.2383H1.90732Z" fill="var(--fill-0, #D80027)"/>
<path fill-rule="evenodd" clip-rule="evenodd" d="M6.76386 0.536407V6.76181L2.00249 3.99929C3.20717 2.39431 4.86593 1.18795 6.76401 0.536407H6.76386Z" fill="#0052B4"/>
<path fill-rule="evenodd" clip-rule="evenodd" d="M1.90732 6.76181L0.785313 6.11361C1.0191 5.56023 1.30242 5.0291 1.6318 4.52671L5.50267 6.76181H1.90732Z" fill="var(--fill-0, #D80027)"/>
<path fill-rule="evenodd" clip-rule="evenodd" d="M13.2404 19.4637V13.2383L18.0018 16.0007C16.7971 17.6057 15.1383 18.8121 13.2403 19.4637H13.2404Z" fill="#0052B4"/>
<path fill-rule="evenodd" clip-rule="evenodd" d="M18.0967 13.2383L19.2187 13.8861C18.985 14.4395 18.7017 14.9706 18.3722 15.473L14.5014 13.2383H18.0967Z" fill="var(--fill-0, #D80027)"/>
<path fill-rule="evenodd" clip-rule="evenodd" d="M13.2404 0.536333V6.76181L18.0018 3.9993C16.7971 2.39429 15.1383 1.1879 13.2403 0.536333H13.2404Z" fill="#0052B4"/>
<path fill-rule="evenodd" clip-rule="evenodd" d="M18.0967 6.76181L19.2187 6.11406C18.985 5.56067 18.7017 5.02954 18.3722 4.52717L14.5014 6.76181H18.0967Z" fill="var(--fill-0, #D80027)"/>
</g>
</svg>
