<svg preserveAspectRatio="none" width="100%" height="100%" overflow="visible" style="display: block;" viewBox="0 0 19.991 20" fill="none" xmlns="http://www.w3.org/2000/svg">
<g id="Vector">
<path d="M9.99558 0C5.72231 0 2.06828 2.69495 0.639187 6.47383L10.0013 7.4753L19.3513 6.47383C17.9225 2.69529 14.2688 0 9.99558 0Z" fill="black"/>
<path d="M9.99558 20C14.2688 20 17.9225 17.305 19.3516 13.5262L9.99558 12.8585L0.639521 13.5262C2.06828 17.3047 5.72231 20 9.99558 20Z" fill="#FEDF00"/>
<path d="M19.4671 6.80064C19.4301 6.69115 19.392 6.58199 19.3513 6.47416H0.639187C-0.213062 8.66905 -0.213062 11.331 0.639187 13.5258H19.3513C20.1595 11.4455 20.2062 8.90807 19.4671 6.80064Z" fill="var(--fill-0, #E90000)"/>
</g>
</svg>
