<svg preserveAspectRatio="none" width="100%" height="100%" overflow="visible" style="display: block;" viewBox="0 0 20 20" fill="none" xmlns="http://www.w3.org/2000/svg">
<g id="Vector">
<path d="M10 20C15.5228 20 20 15.5228 20 10C20 4.47715 15.5228 0 10 0C4.47715 0 0 4.47715 0 10C0 15.5228 4.47715 20 10 20Z" fill="#ED1C24"/>
<path d="M10 0C4.46667 0 0 4.46667 0 10C0 15.5333 4.46667 20 10 20C11.1333 20 12.2667 19.8 13.4 19.4V0.6C12.2667 0.2 11.1333 0 10 0Z" fill="#F0F0F0"/>
<path d="M0 10C0 5.73333 2.66667 2 6.66667 0.6V19.4667C2.66667 18 0 14.2667 0 10Z" fill="var(--fill-0, #0071BC)"/>
</g>
</svg>
