<svg preserveAspectRatio="none" width="100%" height="100%" overflow="visible" style="display: block;" viewBox="0 0 20 20" fill="none" xmlns="http://www.w3.org/2000/svg">
<g id="PORTUGAL">
<path d="M0 10C0 14.2996 2.71375 17.965 6.52168 19.378L7.39129 9.99996L6.52168 0.621992C2.71375 2.03496 0 5.70035 0 10Z" fill="#6DA544"/>
<path d="M20 10C20 4.47719 15.5228 0 10 0C8.7768 0 7.60504 0.220039 6.52168 0.621992V19.378C7.60504 19.78 8.7768 20 10 20C15.5228 20 20 15.5228 20 10Z" fill="#D80027"/>
<path d="M6.52176 13.4782C8.44274 13.4782 10 11.921 10 10C10 8.07902 8.44274 6.52176 6.52176 6.52176C4.60078 6.52176 3.04352 8.07902 3.04352 10C3.04352 11.921 4.60078 13.4782 6.52176 13.4782Z" fill="#FFDA44"/>
<path d="M4.56523 8.26086V10.4348C4.56523 11.5153 5.44117 12.3913 6.52176 12.3913C7.60234 12.3913 8.47828 11.5154 8.47828 10.4348V8.26086H4.56523Z" fill="#D80027"/>
<path d="M6.52176 11.087C6.16215 11.087 5.86957 10.7944 5.86957 10.4348V9.56523H7.17391V10.4348C7.17391 10.7944 6.88133 11.087 6.52176 11.087Z" fill="var(--fill-0, #F0F0F0)"/>
</g>
</svg>
