<svg preserveAspectRatio="none" width="100%" height="100%" overflow="visible" style="display: block;" viewBox="0 0 30 30" fill="none" xmlns="http://www.w3.org/2000/svg">
<g id="Vector">
<path d="M15 30C23.2843 30 30 23.2843 30 15C30 6.71573 23.2843 0 15 0C6.71573 0 0 6.71573 0 15C0 23.2843 6.71573 30 15 30Z" fill="#00C85F"/>
<path d="M14.4262 6.08742L1.68006 14.5849C1.37297 14.7896 1.37297 15.2409 1.68006 15.4456L14.4262 23.943C14.7737 24.1747 15.2263 24.1747 15.5738 23.943L28.3199 15.4456C28.627 15.2408 28.627 14.7896 28.3199 14.5849L15.5738 6.08742C15.2263 5.85574 14.7737 5.85574 14.4262 6.08742Z" fill="#FFF046"/>
<path d="M15 21.2069C18.428 21.2069 21.2069 18.428 21.2069 15C21.2069 11.572 18.428 8.79311 15 8.79311C11.572 8.79311 8.79311 11.572 8.79311 15C8.79311 18.428 11.572 21.2069 15 21.2069Z" fill="#4B82E1"/>
<path d="M9.69814 11.7848C9.49482 12.1193 9.32297 12.4739 9.18498 12.846C12.0681 12.65 16.6947 13.1635 20.7574 17.3115C20.9023 16.9511 21.0155 16.5749 21.0909 16.1848C17.1149 12.3717 12.6995 11.6869 9.69814 11.7848Z" fill="var(--fill-0, white)"/>
</g>
</svg>
