<svg width="30" height="30" viewBox="0 0 30 30" fill="none" xmlns="http://www.w3.org/2000/svg">
<g id="ISRAEL" clip-path="url(#clip0_0_1)">
<g id="Vector">
<path d="M30 14.9573V15C30 17.9029 29.1771 20.6152 27.7366 22.9112C26.4486 24.9968 24.6543 26.7377 22.5264 27.9684C20.3154 29.2609 17.7398 30 14.9994 30C12.2602 30 9.68464 29.2609 7.473 27.9684C5.3463 26.7377 3.55145 24.9968 2.26339 22.9112C0.822896 20.6152 0 17.9029 0 15V14.9573C0.00506225 12.0071 0.870707 9.2521 2.35901 6.92965C3.69882 4.82938 5.5516 3.08685 7.74243 1.87303C9.88994 0.680028 12.3648 0 14.9989 0C17.6329 0 20.1084 0.680028 22.2564 1.87303C24.4478 3.08685 26.2995 4.82938 27.6399 6.92965C29.1293 9.2521 29.9944 12.0071 30 14.9573Z" fill="#F7F7F7"/>
<path d="M27.7366 22.9112C26.4486 24.9968 24.6543 26.7377 22.5264 27.9684H7.473C5.3463 26.7377 3.55145 24.9968 2.26339 22.9112H27.7366Z" fill="#346EB6"/>
<path d="M27.641 6.92965H2.35901C3.69882 4.82938 5.5516 3.08685 7.74243 1.87303H22.257C24.4484 3.08685 26.3006 4.82938 27.641 6.92965Z" fill="#346EB6"/>
<path d="M21.8892 11.0678H17.3894L15.1738 7.20358L12.9177 11.0678H8.35046L10.6347 14.9826L8.35046 18.8974H12.9177L15.1738 22.7559L17.3894 18.8974H21.8892L19.6393 14.9826L21.8892 11.0678ZM19.9599 12.1871L18.9975 13.8632L18.0362 12.1871H19.9599ZM15.1676 9.43603L16.1069 11.0672H14.2114L15.1676 9.43603ZM10.2966 12.1871H12.2653L11.2809 13.8689L10.2966 12.1871ZM10.2966 17.7775L11.2871 16.0901L12.2653 17.7775H10.2966ZM15.1676 20.5336L14.2114 18.8968H16.1069L15.1676 20.5336ZM16.7532 17.7775H13.5584L11.9278 14.982L13.564 12.1865H16.7476L18.3563 14.982L16.7532 17.7775ZM19.9599 17.7775H18.0362L18.9975 16.0957L19.9599 17.7775Z" fill="#346EB6"/>
</g>
</g>
<defs>
<clipPath id="clip0_0_1">
<rect width="30" height="30" fill="white"/>
</clipPath>
</defs>
</svg>
