<svg preserveAspectRatio="none" width="100%" height="100%" overflow="visible" style="display: block;" viewBox="0 0 20 20" fill="none" xmlns="http://www.w3.org/2000/svg">
<g id="Vector">
<path d="M10 19.9336C15.5228 19.9336 20 15.4713 20 9.96678C20 4.46228 15.5228 0 10 0C4.47715 0 0 4.46228 0 9.96678C0 15.4713 4.47715 19.9336 10 19.9336Z" fill="#ED1C24"/>
<path d="M10 0C4.46667 0 0 4.45183 0 9.96678C0 15.4817 4.46667 19.9336 10 19.9336V0Z" fill="#009245"/>
<path d="M10 0C8.86667 0 7.73333 0.199336 6.66667 0.598007V19.402C8.8 20.1993 11.2 20.1993 13.3333 19.402V0.598007C12.2667 0.199336 11.1333 0 10 0Z" fill="var(--fill-0, #F0F0F0)"/>
</g>
</svg>
