<svg width="30" height="30" viewBox="0 0 30 30" fill="none" xmlns="http://www.w3.org/2000/svg">
<g id="SUECO" clip-path="url(#clip0_0_1)">
<g id="Vector">
<path d="M15 30C23.2843 30 30 23.2843 30 15C30 6.71573 23.2843 0 15 0C6.71573 0 7.82311e-07 6.71573 7.82311e-07 15C7.82311e-07 23.2843 6.71573 30 15 30Z" fill="#006AA7"/>
<path d="M30 14.9869V15.1531C29.9932 15.8446 29.9389 16.5347 29.8375 17.2188H12.7188V29.8275C11.1978 29.5958 9.72198 29.1299 8.34375 28.4463V17.2188H0.163125C0.061509 16.5348 0.00700564 15.8446 0 15.1531C0 15.1063 0 15.06 0 15.0131V14.9869C0.000351249 14.2697 0.0519409 13.5535 0.154375 12.8438H8.34188V1.55375C9.72011 0.870108 11.1959 0.404163 12.7169 0.172499V12.8438H29.8419C29.9456 13.5534 29.9984 14.2696 30 14.9869Z" fill="#FECC00"/>
</g>
</g>
<defs>
<clipPath id="clip0_0_1">
<rect width="30" height="30" fill="white"/>
</clipPath>
</defs>
</svg>
