<svg preserveAspectRatio="none" width="100%" height="100%" overflow="visible" style="display: block;" viewBox="0 0 20 20" fill="none" xmlns="http://www.w3.org/2000/svg">
<g id="USA">
<path fill-rule="evenodd" clip-rule="evenodd" d="M10 0.00727008C8.02219 0.00727008 6.08879 0.593547 4.4443 1.69196C2.79981 2.79038 1.51809 4.35159 0.761209 6.17819C0.00433288 8.00479 -0.1937 10.0147 0.192152 11.9538C0.578004 13.8929 1.53041 15.6741 2.92894 17.0721C4.32746 18.4701 6.10929 19.4222 8.0491 19.8079C9.98891 20.1936 11.9996 19.9957 13.8268 19.2391C15.6541 18.4825 17.2159 17.2012 18.3147 15.5573C19.4135 13.9134 20 11.9807 20 10.0036C20 7.35243 18.9464 4.80982 17.0711 2.93514C15.1957 1.06046 12.6522 0.00727008 10 0.00727008Z" fill="#F4F4F5"/>
<path fill-rule="evenodd" clip-rule="evenodd" d="M14.7818 18.7786H5.21454C6.68274 19.5752 8.32677 19.9924 9.99727 19.9924C11.6678 19.9924 13.3118 19.5752 14.78 18.7786H14.7818ZM0.296364 12.4273C0.434391 12.9705 0.616822 13.5015 0.841818 14.0149H19.1591C19.3841 13.5015 19.5665 12.9705 19.7045 12.4273H0.296364ZM1.71727 15.6034C2.10801 16.1766 2.55607 16.7085 3.05454 17.191H16.9418C17.4403 16.7085 17.8884 16.1766 18.2791 15.6034H1.71727ZM19.9618 10.8397C19.9845 10.5671 20 10.2826 20 10C20 9.74827 19.9927 9.49655 19.9691 9.25209H11.55V10.8397H19.9618ZM19.7245 7.66358C19.5961 7.11982 19.4197 6.58854 19.1973 6.07597H11.55V7.66358H19.7245ZM18.3418 4.48837C17.9611 3.91541 17.5224 3.38311 17.0327 2.89985H11.5573V4.48837H18.3418ZM14.9418 1.31225C13.8949 0.71569 12.748 0.314745 11.5573 0.129044V1.31043L14.9418 1.31225Z" fill="#C3361F"/>
<path fill-rule="evenodd" clip-rule="evenodd" d="M0.296364 7.53726H0.531818L0.311818 7.6972L0.395454 7.96347L0.228182 7.84169C0.0891456 8.48082 0.0154337 9.13242 0.00818182 9.78644H0.0909091L0.174545 9.52835L0.258182 9.78644H0.530909L0.310909 9.94638L0.394545 10.2045L0.174545 10.0445L0.00727273 10.1663C0.0145455 10.379 0.0227273 10.5916 0.0372727 10.797H11.5009V0.121774C10.988 0.0423274 10.4699 0.00162091 9.95091 0C8.81668 0.000556713 7.69075 0.193214 6.62091 0.569793H6.72727L6.50727 0.729735L6.59091 0.987822L6.37 0.826972L6.15 0.986914L6.23363 0.729735L6.22545 0.721556C4.77322 1.311 3.48071 2.23485 2.45311 3.41794C1.42551 4.60103 0.691845 6.00993 0.311818 7.52999L0.296364 7.53726ZM0 9.92366V10.0373L0.03 9.94638L0 9.92366ZM1.40636 9.0149L1.18182 8.85223L0.953636 9.01218L1.03727 8.75409L0.818182 8.59415H1.09091L1.18182 8.33515L1.26545 8.59324H1.53818L1.31818 8.75318L1.40182 9.01127L1.40636 9.0149ZM1.33818 6.45129L1.42182 6.70938L1.20091 6.55216L0.980909 6.7121L1.06455 6.45402L0.843636 6.29135H1.11636L1.2 6.03326L1.28364 6.29135H1.55636L1.33636 6.45129H1.33818ZM2.45454 10.2126L2.23454 10.0527L2.01455 10.2126L2.09818 9.95456L1.87818 9.79462H2.15091L2.23454 9.53653L2.31818 9.79462H2.59091L2.37091 9.95456L2.45454 10.2126ZM2.37182 7.70447L2.45545 7.97074L2.23545 7.8108L2.01545 7.97074L2.09909 7.70447L1.87909 7.54453H2.15182L2.23454 7.27917L2.31818 7.54544H2.59091L2.37182 7.70447ZM2.37182 5.34896L2.45545 5.60705L2.23545 5.44711L2.01545 5.60705L2.09909 5.34896L1.87727 5.18902H2.15L2.23364 4.93093L2.31818 5.18902H2.59091L2.37182 5.34896ZM10.4064 0.585242L10.49 0.327154L10.5736 0.585242H10.8464L10.6273 0.744275L10.7109 1.00236L10.49 0.84333L10.27 1.00327L10.3536 0.745183L10.1327 0.585242H10.4064ZM10.4064 2.88713L10.49 2.62904L10.5736 2.88713H10.8464L10.6264 3.04707L10.71 3.30516L10.49 3.14522L10.27 3.30516L10.3536 3.04707L10.1336 2.88713H10.4064ZM10.4064 5.18902L10.49 4.93093L10.5736 5.18902H10.8464L10.6264 5.34896L10.71 5.60705L10.49 5.44711L10.27 5.60705L10.3536 5.34896L10.1327 5.18902H10.4064ZM10.4064 7.54453L10.49 7.27917L10.5736 7.54544H10.8464L10.6264 7.70538L10.71 7.97165L10.49 7.8117L10.27 7.97165L10.3536 7.70538L10.1336 7.54544H10.4064V7.54453ZM8.33909 0.585242L8.42273 0.327154L8.50636 0.585242H8.77909L8.55909 0.744275L8.64273 1.00236L8.42273 0.84333L8.19454 1.00327L8.27818 0.744275L8.05727 0.585242H8.33909ZM3.46636 9.05761L3.24545 8.89767L3.02545 9.05761L3.10909 8.79953L2.88818 8.64231H3.16091L3.24454 8.38422L3.32818 8.64231H3.60091L3.38091 8.80225L3.46454 9.06034L3.46636 9.05761ZM3.40545 6.49673L3.48909 6.75482L3.27273 6.59578L3.05273 6.75572L3.13636 6.49764L2.90909 6.33679H3.18182L3.27273 6.0787L3.35636 6.33679H3.62909L3.40909 6.49673H3.40545ZM3.42818 4.17121L3.51182 4.43748L3.29182 4.28026L3.07182 4.4402L3.15454 4.17121L2.93454 4.00763H3.20727L3.29091 3.74955L3.37454 4.00763H3.64727L3.42727 4.16758L3.42818 4.17121ZM4.51909 10.2199L4.29909 10.06L4.07091 10.2199L4.15454 9.96183L3.93454 9.80189H4.20727L4.29091 9.5438L4.37454 9.80189H4.64727L4.42727 9.96183L4.51091 10.2199H4.51909ZM4.43909 7.71265L4.52273 7.97892L4.30273 7.81897L4.07454 7.97892L4.15818 7.71265L3.93727 7.5518H4.21L4.29364 7.28553L4.37727 7.5518H4.65L4.43 7.71174L4.43909 7.71265ZM4.43909 5.35714L4.52273 5.61523L4.30273 5.45529L4.07454 5.61523L4.15818 5.35714L3.93818 5.1972H4.21091L4.29454 4.93911L4.37818 5.1972H4.65091L4.43091 5.35714H4.43909ZM4.43909 3.05525L4.52273 3.31334L4.30273 3.1534L4.07454 3.31334L4.15818 3.05525L3.93818 2.89531H4.21091L4.29454 2.63722L4.37818 2.89531H4.65091L4.43091 3.05525H4.43909ZM5.53 9.08851L5.31 8.92857L5.09091 9.0876L5.17636 8.82406L4.95636 8.66412H5.22909L5.31273 8.40603L5.39636 8.66412H5.66909L5.45454 8.82406L5.53818 9.09033L5.53 9.08851ZM5.46545 6.51945L5.54909 6.77753L5.32909 6.61759L5.10091 6.77753L5.18182 6.51945L4.96364 6.3595H5.23636L5.32091 6.09778L5.40454 6.35587H5.67727L5.45454 6.51945H5.46545ZM5.48818 4.19393L5.57182 4.45202L5.35182 4.29207L5.13182 4.45202L5.21545 4.19393L4.99454 4.0349H5.26727L5.35091 3.77681L5.43454 4.0349H5.70727L5.48727 4.19484L5.48818 4.19393ZM5.48818 1.8157L5.57182 2.08197L5.35182 1.92203L5.13182 2.08197L5.21545 1.8157L4.99545 1.65576H5.26818L5.35182 1.39767L5.43545 1.65576H5.70818L5.48818 1.8157ZM6.57909 10.2199L6.36363 10.06L6.14363 10.2199L6.22727 9.96183L6.00727 9.80189H6.28L6.36363 9.5438L6.44727 9.80189H6.72L6.5 9.96183L6.58363 10.2199H6.57909ZM6.49909 7.71265L6.58273 7.97892L6.36363 7.81897L6.14363 7.97892L6.22727 7.71265L6.00545 7.5518H6.27818L6.36363 7.28644L6.44727 7.55271H6.72L6.49909 7.71265ZM6.49909 5.35714L6.58273 5.61523L6.36363 5.45529L6.14363 5.61523L6.22727 5.35714L6.00727 5.1972H6.28L6.36363 4.93911L6.44727 5.1972H6.72L6.49909 5.35714ZM6.49909 3.05525L6.58273 3.31334L6.36363 3.1534L6.14363 3.31334L6.22727 3.05525L6.00727 2.89531H6.28L6.36363 2.63631L6.44727 2.8944H6.72L6.5 3.05434L6.49909 3.05525ZM7.59 9.17212L7.37 9.01218L7.15 9.17212L7.23636 8.91494L7.01636 8.755H7.28909L7.37273 8.49691L7.45636 8.755H7.72909L7.51 8.91494L7.59363 9.17303L7.59 9.17212ZM7.53273 6.61032L7.61636 6.87659L7.39636 6.71665L7.17636 6.87659L7.26 6.61032L7.04 6.45038H7.31273L7.39636 6.18866L7.48 6.44675H7.75273L7.53273 6.60669V6.61032ZM7.55545 4.2848L7.63636 4.5438L7.41636 4.38386L7.19636 4.5438L7.28 4.28571L7.06182 4.12577H7.33454L7.41818 3.86768L7.50182 4.12577H7.77454L7.55454 4.28571L7.55545 4.2848ZM7.55545 1.90658L7.63909 2.17285L7.41909 2.0129L7.19909 2.17285L7.28273 1.90658L7.06273 1.74664H7.33545L7.41909 1.48037L7.50273 1.74664H7.77545L7.55545 1.90658ZM8.64636 10.2272L8.42636 10.0672L8.19818 10.2272L8.28182 9.9691L8.06182 9.80916H8.33454L8.41818 9.55107L8.50182 9.80916H8.77454L8.55454 9.9691L8.63818 10.2272H8.64636ZM8.56727 7.71992L8.65091 7.98619L8.43 7.82443L8.20182 7.98437L8.28545 7.7181L8.06545 7.55816H8.33818L8.42182 7.29189L8.50545 7.55816H8.77818L8.55818 7.7181L8.56727 7.71992ZM8.56727 5.36441L8.65091 5.6225L8.43 5.46165L8.20182 5.62159L8.28545 5.3635L8.06545 5.20356H8.33818L8.42182 4.94547L8.50545 5.20356H8.77818L8.55818 5.3635L8.56727 5.36441ZM8.56727 3.06252L8.65091 3.32061L8.43091 3.16067L8.20273 3.32061L8.28636 3.06252L8.06636 2.90258H8.33909L8.42273 2.64449L8.50636 2.90258H8.77909L8.55909 3.06252H8.56727ZM9.65818 9.17939L9.43818 9.01945L9.21818 9.17939L9.30182 8.9213L9.08182 8.76136H9.35454L9.43818 8.50327L9.52182 8.76136H9.79454L9.57454 8.9213L9.65818 9.17939ZM9.59 6.6185L9.67363 6.88477L9.45454 6.72483L9.23454 6.88477L9.31818 6.6185L9.09909 6.46129H9.37182L9.45545 6.2032L9.53909 6.46129H9.81182L9.59182 6.62123L9.59 6.6185ZM9.61273 4.29298L9.7 4.55289L9.48 4.39295L9.25909 4.55289L9.34273 4.2948L9.12273 4.13486H9.39545L9.47909 3.87677L9.56273 4.13486H9.83545L9.61545 4.2948L9.61273 4.29298ZM9.61273 1.91476L9.69636 2.18102L9.47636 2.02108L9.25636 2.18102L9.34 1.91476L9.12 1.75482H9.39272L9.47636 1.48855L9.56 1.75482H9.83272L9.61273 1.91476ZM10.7036 10.2354L10.4836 10.0754L10.2636 10.2354L10.3473 9.97728L10.1273 9.81734H10.4L10.4836 9.55925L10.5673 9.81734H10.84L10.62 9.97728L10.7036 10.2354Z" fill="var(--fill-0, #2F396D)"/>
</g>
</svg>
