<svg width="30" height="30" viewBox="0 0 30 30" fill="none" xmlns="http://www.w3.org/2000/svg">
<g id="ROMENO" clip-path="url(#clip0_0_1)">
<g id="Vector">
<path d="M30.0101 15.0119C30.0076 18.1969 28.9913 21.2985 27.1085 23.8674C25.2256 26.4363 22.574 28.3392 19.5375 29.3005C16.501 30.2618 13.2373 30.2316 10.2191 29.2143C7.20092 28.197 4.58488 26.2454 2.74986 23.6421C0.914844 21.0388 -0.0438976 17.919 0.0124844 14.7345C0.0688664 11.5499 1.13744 8.46602 3.06347 5.92932C4.98949 3.39263 7.67297 1.53484 10.7253 0.625021C13.7776 -0.284803 17.0403 -0.199436 20.0408 0.86876C22.9583 1.91021 25.4823 3.82833 27.267 6.36028C29.0518 8.89223 30.0099 11.9141 30.0101 15.0119Z" fill="#FCD116"/>
<path d="M9.95543 0.868761V29.155C7.03857 28.113 4.51523 26.1947 2.73108 23.6628C0.946931 21.1309 -0.0107422 18.1093 -0.0107422 15.0119C-0.0107422 11.9145 0.946931 8.89289 2.73108 6.36098C4.51523 3.82907 7.03857 1.91073 9.95543 0.868761Z" fill="#002B7F"/>
<path d="M30.0101 15.0119C30.0099 18.1096 29.0518 21.1315 27.2671 23.6635C25.4823 26.1954 22.9583 28.1135 20.0409 29.155L20.0408 0.86876C22.9583 1.91021 25.4823 3.82833 27.267 6.36028C29.0518 8.89223 30.0099 11.9141 30.0101 15.0119Z" fill="#CE1126"/>
</g>
</g>
<defs>
<clipPath id="clip0_0_1">
<rect width="30" height="30" fill="white"/>
</clipPath>
</defs>
</svg>
