<svg width="30" height="30" viewBox="0 0 30 30" fill="none" xmlns="http://www.w3.org/2000/svg">
<g id="FINLANDIA" clip-path="url(#clip0_0_1)">
<g id="Vector">
<path d="M15 30C23.284 30 30 23.2834 30 15C30 6.7166 23.284 0 15 0C6.71602 0 4.1211e-07 6.7166 4.1211e-07 15C4.1211e-07 23.2834 6.71543 30 15 30Z" fill="#F0F0F0"/>
<path d="M29.8729 13.0418H11.7398V0.35918C10.3725 0.659474 9.05482 1.15269 7.82637 1.82402V13.0424H0.126563C-0.0421876 14.3424 -0.0421876 15.6588 0.126563 16.9588H7.82637V28.1754C9.05626 28.8436 10.3735 29.3366 11.7398 29.6402V16.9588H29.8729C30.0422 15.6586 30.0422 14.342 29.8729 13.0418Z" fill="#0052B4"/>
</g>
</g>
<defs>
<clipPath id="clip0_0_1">
<rect width="30" height="30" fill="white"/>
</clipPath>
</defs>
</svg>
