<svg width="11" height="9" viewBox="-0.25 -0.5 12 10" fill="none" xmlns="http://www.w3.org/2000/svg">
<path d="M0.6 3.6426C0.2686 3.6426 0 3.9112 0 4.2426C0 4.574 0.2686 4.8426 0.6 4.8426V4.2426V3.6426Z M11.0243 4.6669C11.2586 4.4325 11.2586 4.0527 11.0243 3.8183L7.2059 0C6.9716 -0.2344 6.5917 -0.2344 6.3574 0C6.1231 0.2343 6.1231 0.6142 6.3574 0.8485L9.7515 4.2426L6.3574 7.6367C6.1231 7.871 6.1231 8.2509 6.3574 8.485C6.5917 8.7196 6.9716 8.7196 7.2059 8.485L11.0243 4.6669Z M0.6 4.2426V4.8426H10.6V4.2426V3.6426H0.6V4.2426Z" fill="var(--fill-0, white)"/>
</svg>
